<svg xmlns="http://www.w3.org/2000/svg" viewBox="0 0 150 150" role="img" aria-label="Nova listening">
<!-- SVG created with Arrow, by QuiverAI (https://quiver.ai) -->
  <style type="text/css">.nova-cls-0 {fill:url(#nova_g1_);}
.nova-cls-1 {fill:#445062;}
.nova-cls-2 {fill:#273240;}
.nova-cls-3 {fill:#475365;}
.nova-cls-4 {fill:#2D3748;}
.nova-cls-5 {fill:#79A6BC;}
.nova-cls-6 {fill:none;stroke:#78A7BD;stroke-width:0.6714;stroke-miterlimit:10;}
.nova-cls-7 {fill:url(#nova_g2_);}
.nova-cls-8 {fill:url(#nova_g3_);}
.nova-cls-9 {fill:url(#nova_g4_);}
.nova-cls-10 {fill:url(#nova_g5_);}
.nova-cls-11 {fill:url(#nova_g6_);}
.nova-cls-12 {fill:url(#nova_g7_);}
.nova-cls-13 {fill:url(#nova_g8_);}
.nova-cls-14 {fill:url(#nova_g9_);}</style>
  <radialGradient id="nova_g1_" cx="75.09" cy="74.17" r="28.7" gradientUnits="userSpaceOnUse">
    <stop stop-color="#1CDCC4" stop-opacity=".3" offset=".5315"/>
    <stop stop-color="#21E7DA" stop-opacity="0" offset="1"/>
  </radialGradient>
  <path class="nova-cls-0" d="m103.8 74.2c0 15.4-13.1 28.8-28.7 28.8s-28.7-13.4-28.7-28.8 13-26.5 28.7-26.5c15.5 0 28.7 11 28.7 26.5z"/>
  <path class="nova-cls-1" d="m42.2 39.9-5.3-5.1c9-8.5 21.8-15.2 36.3-15.5v7.4c-13.8 0.2-24.5 6.5-31 13.2z"/>
  <path class="nova-cls-3" d="m42.2 39.9-5.3-4.9c8.4-8 20.6-15 36.6-15.8v7.6c-11 0.1-23.2 5.3-31.3 13.1z"/>
  <path class="nova-cls-1" d="m27.9 73.2h-7.5c0.3-13.2 4.8-25.5 14.6-36.4l5.2 5c-7.2 7.8-12.1 18.3-12.3 31.4z"/>
  <path class="nova-cls-2" d="m35.2 112.1c-8.1-8.6-14.6-21.4-14.9-36.4h7.4c0.3 12.8 4.3 22.4 11.4 29.9l-3.9 6.5z"/>
  <path class="nova-cls-3" d="m73.6 128.9c-12.5-0.1-24.6-4.5-36.6-15l5.2-5.6c8.3 7.8 19 12.8 31.4 13.3v7.3z"/>
  <path class="nova-cls-2" d="m76.4 129-0.1-7.4c10.5-0.2 22.3-4.3 31.3-13.2l5.5 5.4c-8.3 8.4-21 14.8-36.7 15.2z"/>
  <path class="nova-cls-1" d="m115 112-5.7-5.6c7.2-7.3 12.4-17.5 12.6-30.7h7.9c0 12.3-5.1 26.6-14.8 36.3z"/>
  <path class="nova-cls-2" d="m129.7 73.2h-7.7c-0.3-12.5-5.2-22.5-12.4-31.4l5.6-5.1c7.9 8.2 14.3 21.1 14.5 36.5z"/>
  <path class="nova-cls-2" d="m107.8 39.4c-6.8-6.6-17.7-12.2-31.5-12.6v-7.6c13 0.2 24.6 4.4 37 15.7l-5.5 4.6z"/>
  <path class="nova-cls-4" d="m48 46.6-4.9-4.4c7.9-7.8 18.2-13.1 31.8-13.1l0.1 6.8c-9 0-18.5 2.8-27 10.7z"/>
  <path class="nova-cls-1" d="m75.1 35.9-0.2-6.8c12.1 0 22.5 3.4 31.9 13.2l-4.6 4.3c-7.6-7.2-15.4-10.5-27.1-10.7z"/>
  <path class="nova-cls-5" d="m76.4 32.3v0.6c8.7 0.3 17.2 3.2 27.1 10.9l0.3-0.6c-6.7-6.1-15.5-10.6-27.4-10.9z"/>
  <path class="nova-cls-4" d="m105.3 74.2c0-7.1-2.6-13.7-9-20.2l3.2-3.4c4.9 4.9 9.1 12.5 9.1 23.6h-3.3z"/>
  <path class="nova-cls-1" d="m102.2 46.8 4.7-4.5c4.8 4.6 12.7 14.9 12.7 31.9h-6.3c0-11.3-5.2-20.8-11.1-27.4z"/>
  <path class="nova-cls-4" d="m75.9 107.9v-4.6c6.7-0.2 13.2-2.6 19.2-8.5l3 3.2c-5.2 5.2-13.5 9.7-22.2 9.9z"/>
  <path class="nova-cls-1" d="m75 119c-10.8 0-21.1-3.4-32-13.5l4.8-5c6.5 6.4 15.3 12.3 27.2 12.3v6.2z"/>
  <path class="nova-cls-4" d="m75 119v-6.2c9.4 0 19.5-3.2 27.1-12.1l4.7 4.9c-5.4 5.5-15.9 13.4-31.8 13.4z"/>
  <path class="nova-cls-3" d="m106.7 105.6-4.6-5c6.3-6.2 11.2-15.6 11.2-26.4h6.3c0 11.6-4.1 22.8-12.9 31.4z"/>
  <path class="nova-cls-4" d="m43 105.5c-5.7-5.9-12.9-16.4-12.9-31.4h6.9c0 10.8 4.6 19.5 10.8 26.4l-4.8 5z"/>
  <path class="nova-cls-1" d="m30.1 74.2c0-14.4 6.9-25.6 13-32l4.7 4.4c-5.6 5.7-10.8 14.8-10.8 27.6h-6.9z"/>
  <path class="nova-cls-6" d="m33.5 73.1c0.3-10.6 5.2-20.1 10.8-27.6"/>
  <path class="nova-cls-5" d="m46.1 104.2c5.8 5.4 14.6 11.4 27.4 12.2v-0.6c-11.8-0.3-20.3-5.2-27-12l-0.4 0.4z"/>
  <path class="nova-cls-5" d="m105.4 101.5"/>
  <path class="nova-cls-6" d="m105.5 101.9c5.7-5.3 11-15.1 11.1-26.4"/>
  <path class="nova-cls-2" d="m50.4 96.6c-4.1-4.1-9.1-12.3-9.1-22.5h4.4c0 7.9 2.8 14.1 8 19.5l-3.3 3z"/>
  <path class="nova-cls-1" d="m73.9 107.8c-6.9 0-14.5-2.4-22.1-9.8l3.3-3.1c3.4 3.4 10.1 7.9 18.8 8.5v4.4z"/>
  <linearGradient id="nova_g2_" x1="48.93" x2="93" y1="74.04" y2="74.04" gradientTransform="matrix(.7071 .7071 -.7071 .7071 72.15 -30.71)" gradientUnits="userSpaceOnUse">
    <stop stop-color="#445062" offset="0"/>
    <stop stop-color="#2F3B4C" offset=".4893"/>
    <stop stop-color="#445062" offset="1"/>
  </linearGradient>
  <path class="nova-cls-7" d="m55.1 52.5-3.3-3.3c4.8-4.5 12.3-9 22.1-9.1l0.1 4c-7.2 0-13.5 3.3-18.9 8.4z"/>
  <path class="nova-cls-1" d="m95.1 52.6c-4-3.6-10.4-8.3-19.2-8.5v-4c6 0 13.9 1.7 22.2 9l-3 3.5z"/>
  <linearGradient id="nova_g3_" x1="48.84" x2="101.2" y1="74.56" y2="74.56" gradientUnits="userSpaceOnUse">
    <stop stop-color="#445062" offset="0"/>
    <stop stop-color="#3A4A5B" offset=".4893"/>
    <stop stop-color="#445062" offset="1"/>
  </linearGradient>
  <path class="nova-cls-8" d="m59.8 57.7-2.6-2.8c4-3.7 9.5-7.9 17.8-7.9 13.7 0 24 10.6 25.8 22.4 1.4 8.4-1.6 17.1-6.5 21.9l-2.5-2.4c3.4-3.8 5.7-9.5 5.7-14.3 0-11.9-9.6-23.4-22.5-23.4-5.7 0-11.1 2.1-15.2 6.5z"/>
  <linearGradient id="nova_g4_" x1="48.86" x2="92.93" y1="78.51" y2="78.51" gradientUnits="userSpaceOnUse">
    <stop stop-color="#445062" offset="0"/>
    <stop stop-color="#313C4C" offset=".2717"/>
    <stop stop-color="#3B4B59" offset=".5368"/>
    <stop stop-color="#445565" offset="1"/>
  </linearGradient>
  <path class="nova-cls-9" d="m75 99.9c-14.1 0-24.8-10.9-26.1-23.4-0.8-9.6 3.3-15.9 6.9-20.1l2.7 2.6c-3.4 3.9-5.8 8.7-5.8 15.1 0 11.4 9.1 22 22.3 22.1 5.4 0 10.5-1.8 14.9-5.8l3 2.5c-3.8 3.7-9.8 7-17.9 7z"/>
  <linearGradient id="nova_g5_" x1="96.46" x2="108.5" y1="86.33" y2="74.25" gradientUnits="userSpaceOnUse">
    <stop stop-color="#3C4858" offset="0"/>
    <stop stop-color="#445062" offset="1"/>
  </linearGradient>
  <path class="nova-cls-10" d="m99.5 96.5-3.1-3c3.8-3.9 7.8-11.4 7.7-19.3h4.5c0 9.3-3.5 16.9-9.1 22.3z"/>
  <path class="nova-cls-6" d="m43.7 74.1c0-8.6 2.9-14.9 7.4-20.3"/>
  <path class="nova-cls-5" d="m99.1 93.7-0.1-0.3c4.2-4.9 7.3-11.6 7.2-19.2h0.3c0.3 5.9-2.1 14.5-7.4 19.5z"/>
  <linearGradient id="nova_g6_" x1="-1233" x2="-1211" y1="620" y2="620" gradientTransform="matrix(-.4401 -.898 .943 -.3793 -891.8 -834.1)" gradientUnits="userSpaceOnUse">
    <stop stop-color="#21E7DA" offset="0"/>
    <stop stop-color="#1CDCC4" offset="1"/>
  </linearGradient>
  <path class="nova-cls-11" d="m74.9 60c7.5 0 14.2 5.6 14.2 14s-6.7 14.1-14.1 14.1-14-5.3-14.1-14.1c0-7.4 6.3-13.9 14-14z"/>
  <linearGradient id="nova_g7_" x1="-1231" x2="-1214" y1="620" y2="620" gradientTransform="matrix(-.4401 -.898 .943 -.3793 -891.8 -834.1)" gradientUnits="userSpaceOnUse">
    <stop stop-color="#1ED0BE" offset="0"/>
    <stop stop-color="#1CCDC1" offset="1"/>
  </linearGradient>
  <path class="nova-cls-12" d="m74.9 62.5c7 0 12.4 5.3 12.4 11.5 0 6.6-4.6 11.6-12.2 11.6-6.5 0-12.2-4.6-12.3-11.6 0-5.6 5-11.4 12.1-11.5z"/>
  <linearGradient id="nova_g8_" x1="-1229" x2="-1216" y1="620.5" y2="620.5" gradientTransform="matrix(-.4401 -.898 .943 -.3793 -891.8 -834.1)" gradientUnits="userSpaceOnUse">
    <stop stop-color="#1ECDBF" offset="0"/>
    <stop stop-color="#1DDAC4" offset="1"/>
  </linearGradient>
  <path class="nova-cls-13" d="m74.9 64.9c5.5 0 10 4.4 10 9.1 0 4.6-4 9.1-9.5 9.1s-10.3-3.7-10.3-9.1c0-4.9 4.3-9 9.8-9.1z"/>
  <linearGradient id="nova_g9_" x1="-1227" x2="-1218" y1="620.5" y2="620.5" gradientTransform="matrix(-.4401 -.898 .943 -.3793 -891.8 -834.1)" gradientUnits="userSpaceOnUse">
    <stop stop-color="#1DCFBA" offset="0"/>
    <stop stop-color="#1ECBBE" offset="1"/>
  </linearGradient>
  <path class="nova-cls-14" d="m75 67c3.9 0 7.1 3.3 7.1 6.9 0 2.6-2.7 5.9-7 6.1-3.3 0-7.2-2.2-7.1-6.1-0.1-3.5 2.8-6.8 7-6.9z"/>
</svg>
